<mxfile host="app.diagrams.net" modified="2024-03-16T12:00:05.901Z" agent="Mozilla/5.0 (Windows NT 10.0; Win64; x64) AppleWebKit/537.36 (KHTML, like Gecko) Chrome/122.0.0.0 Safari/537.36" etag="LcFe_pLXvmScLhoHMisY" version="24.0.7" type="google" pages="2">
  <diagram name="DFD" id="75D9ofIQfQOVEr2FzTkD">
    <mxGraphModel grid="1" page="1" gridSize="10" guides="1" tooltips="1" connect="1" arrows="1" fold="1" pageScale="1" pageWidth="1169" pageHeight="827" math="0" shadow="0">
      <root>
        <mxCell id="0" />
        <mxCell id="1" parent="0" />
        <mxCell id="NFMtk3u7j0-KxDk3szv8-72" value="user" style="html=1;overflow=block;blockSpacing=1;whiteSpace=wrap;fontSize=25;fontStyle=1;spacing=0;strokeColor=#3a414a;strokeOpacity=100;rounded=1;absoluteArcSize=1;arcSize=9;strokeWidth=0.8;lucidId=o18j1Dwi1sxZ;" vertex="1" parent="1">
          <mxGeometry x="1260" y="-314" width="135" height="105" as="geometry" />
        </mxCell>
        <mxCell id="NFMtk3u7j0-KxDk3szv8-73" value="admin" style="html=1;overflow=block;blockSpacing=1;whiteSpace=wrap;fontSize=25;fontStyle=1;spacing=0;strokeColor=#3a414a;strokeOpacity=100;rounded=1;absoluteArcSize=1;arcSize=9;strokeWidth=0.8;lucidId=-R9jAlnJOJ8s;" vertex="1" parent="1">
          <mxGeometry x="1260" y="-120" width="135" height="105" as="geometry" />
        </mxCell>
        <mxCell id="NFMtk3u7j0-KxDk3szv8-74" value="visitor" style="html=1;overflow=block;blockSpacing=1;whiteSpace=wrap;fontSize=16.7;fontStyle=1;spacing=0;strokeColor=#3a414a;strokeOpacity=100;rounded=1;absoluteArcSize=1;arcSize=9;strokeWidth=0.8;lucidId=cS9j3o_NOqsY;" vertex="1" parent="1">
          <mxGeometry x="405" y="240" width="135" height="105" as="geometry" />
        </mxCell>
        <mxCell id="NFMtk3u7j0-KxDk3szv8-75" value="" style="html=1;jettySize=18;whiteSpace=wrap;fontSize=13;strokeColor=#3a414a;strokeOpacity=100;strokeWidth=0.8;rounded=1;arcSize=12;edgeStyle=orthogonalEdgeStyle;startArrow=none;endArrow=block;endFill=1;exitX=1.003;exitY=0.321;exitPerimeter=0;entryX=0.022;entryY=0.03;entryPerimeter=0;lucidId=5S9jWp8XjfR_;" edge="1" parent="1" source="NFMtk3u7j0-KxDk3szv8-72" target="NFMtk3u7j0-KxDk3szv8-76">
          <mxGeometry width="100" height="100" relative="1" as="geometry">
            <Array as="points">
              <mxPoint x="1545" y="-281" />
              <mxPoint x="1545" y="-280" />
              <mxPoint x="1609" y="-280" />
            </Array>
          </mxGeometry>
        </mxCell>
        <mxCell id="NFMtk3u7j0-KxDk3szv8-76" value="&lt;div style=&quot;display: flex; justify-content: center; text-align: center; align-items: baseline; font-size: 0; line-height: 1.25;margin-top: -2px;&quot;&gt;&lt;span&gt;&lt;span style=&quot;font-size:16.7px;font-weight: bold;&quot;&gt;1.0&lt;/span&gt;&lt;/span&gt;&lt;/div&gt;" style="shape=swimlane;html=1;rounded=1;arcSize=10;collapsible=0;fontStyle=0;startSize=39;whiteSpace=wrap;overflow=block;blockSpacing=1;fontSize=13;spacing=0;strokeColor=#3a414a;strokeOpacity=100;strokeWidth=0.8;" vertex="1" parent="1">
          <mxGeometry x="1605" y="-255" width="195" height="165" as="geometry" />
        </mxCell>
        <mxCell id="NFMtk3u7j0-KxDk3szv8-77" value="&lt;div style=&quot;display: flex; justify-content: center; text-align: center; align-items: baseline; font-size: 0; line-height: 1.25;margin-top: -2px;&quot;&gt;&lt;span&gt;&lt;span style=&quot;font-size:25px;font-weight: bold;&quot;&gt;sign up / login&lt;/span&gt;&lt;/span&gt;&lt;/div&gt;" style="rounded=1;arcSize=10;strokeColor=none;fillColor=none;whiteSpace=wrap;overflow=block;blockSpacing=1;html=1;fontSize=13;spacing=0;strokeOpacity=100;strokeWidth=0.8;" vertex="1" parent="NFMtk3u7j0-KxDk3szv8-76">
          <mxGeometry y="39" width="195" height="126" as="geometry" />
        </mxCell>
        <mxCell id="NFMtk3u7j0-KxDk3szv8-78" value="" style="html=1;jettySize=18;whiteSpace=wrap;fontSize=13;strokeColor=#3a414a;strokeOpacity=100;strokeWidth=0.8;rounded=1;arcSize=12;edgeStyle=orthogonalEdgeStyle;startArrow=none;endArrow=block;endFill=1;exitX=1.003;exitY=0.13;exitPerimeter=0;entryX=-0.002;entryY=0.689;entryPerimeter=0;lucidId=JU9jF_nNK-OU;" edge="1" parent="1" source="NFMtk3u7j0-KxDk3szv8-73" target="NFMtk3u7j0-KxDk3szv8-76">
          <mxGeometry width="100" height="100" relative="1" as="geometry">
            <Array as="points" />
          </mxGeometry>
        </mxCell>
        <mxCell id="NFMtk3u7j0-KxDk3szv8-79" value="" style="html=1;jettySize=18;whiteSpace=wrap;fontSize=13;strokeColor=#3a414a;strokeOpacity=100;strokeWidth=0.8;rounded=1;arcSize=12;edgeStyle=orthogonalEdgeStyle;startArrow=none;endArrow=block;endFill=1;exitX=1.002;exitY=0.545;exitPerimeter=0;entryX=0.5;entryY=-0.008;entryPerimeter=0;lucidId=KV9j22Gi6pd~;" edge="1" parent="1" source="NFMtk3u7j0-KxDk3szv8-76" target="NFMtk3u7j0-KxDk3szv8-82">
          <mxGeometry width="100" height="100" relative="1" as="geometry">
            <Array as="points">
              <mxPoint x="2025" y="-165" />
            </Array>
          </mxGeometry>
        </mxCell>
        <mxCell id="NFMtk3u7j0-KxDk3szv8-81" value="" style="html=1;jettySize=18;whiteSpace=wrap;fontSize=13;strokeColor=#3a414a;strokeOpacity=100;strokeWidth=0.8;rounded=1;arcSize=12;edgeStyle=orthogonalEdgeStyle;startArrow=none;endArrow=block;endFill=1;exitX=0.119;exitY=1.002;exitPerimeter=0;entryX=1.003;entryY=0.833;entryPerimeter=0;lucidId=XV9jHkkJqgiq;" edge="1" parent="1" source="NFMtk3u7j0-KxDk3szv8-76" target="NFMtk3u7j0-KxDk3szv8-73">
          <mxGeometry width="100" height="100" relative="1" as="geometry">
            <Array as="points" />
          </mxGeometry>
        </mxCell>
        <mxCell id="NFMtk3u7j0-KxDk3szv8-82" value="user" style="html=1;overflow=block;blockSpacing=1;shape=partialRectangle;right=0;whiteSpace=wrap;fontSize=16.7;fontStyle=1;spacing=0;strokeColor=#3a414a;strokeOpacity=100;rounded=1;absoluteArcSize=1;arcSize=9;strokeWidth=0.8;" vertex="1" parent="1">
          <mxGeometry x="1935" y="-75" width="180" height="45" as="geometry" />
        </mxCell>
        <mxCell id="NFMtk3u7j0-KxDk3szv8-83" value="d1" style="part=1;whiteSpace=wrap;fontSize=16.7;fontStyle=1;spacing=0;strokeColor=#3a414a;strokeOpacity=100;rounded=1;absoluteArcSize=1;arcSize=9;strokeWidth=0.8;" vertex="1" parent="NFMtk3u7j0-KxDk3szv8-82">
          <mxGeometry width="36" height="45" as="geometry" />
        </mxCell>
        <mxCell id="NFMtk3u7j0-KxDk3szv8-84" value="" style="html=1;jettySize=18;whiteSpace=wrap;fontSize=13;strokeColor=#3a414a;strokeOpacity=100;strokeWidth=0.8;rounded=1;arcSize=12;edgeStyle=orthogonalEdgeStyle;startArrow=none;endArrow=block;endFill=1;exitX=0.098;exitY=-0.002;exitPerimeter=0;entryX=0.97;entryY=-0.003;entryPerimeter=0;lucidId=_V9j-kIcOJeH;" edge="1" parent="1" source="NFMtk3u7j0-KxDk3szv8-76" target="NFMtk3u7j0-KxDk3szv8-72">
          <mxGeometry width="100" height="100" relative="1" as="geometry">
            <Array as="points" />
          </mxGeometry>
        </mxCell>
        <mxCell id="NFMtk3u7j0-KxDk3szv8-86" value="&lt;div style=&quot;display: flex; justify-content: center; text-align: center; align-items: baseline; font-size: 0; line-height: 1.25;margin-top: -2px;&quot;&gt;&lt;span&gt;&lt;span style=&quot;font-size:16.7px;font-weight: bold;&quot;&gt;3.0&lt;/span&gt;&lt;/span&gt;&lt;/div&gt;" style="shape=swimlane;html=1;rounded=1;arcSize=10;collapsible=0;fontStyle=0;startSize=39;whiteSpace=wrap;overflow=block;blockSpacing=1;fontSize=13;spacing=0;strokeColor=#3a414a;strokeOpacity=100;strokeWidth=0.8;" vertex="1" parent="1">
          <mxGeometry x="810" y="285" width="150" height="120" as="geometry" />
        </mxCell>
        <mxCell id="NFMtk3u7j0-KxDk3szv8-87" value="&lt;div style=&quot;display: flex; justify-content: center; text-align: center; align-items: baseline; font-size: 0; line-height: 1.25;margin-top: -2px;&quot;&gt;&lt;span&gt;&lt;span style=&quot;font-size:16.7px;font-weight: bold;&quot;&gt;search&lt;/span&gt;&lt;/span&gt;&lt;/div&gt;" style="rounded=1;arcSize=10;strokeColor=none;fillColor=none;whiteSpace=wrap;overflow=block;blockSpacing=1;html=1;fontSize=13;spacing=0;strokeOpacity=100;strokeWidth=0.8;" vertex="1" parent="NFMtk3u7j0-KxDk3szv8-86">
          <mxGeometry y="39" width="150" height="81" as="geometry" />
        </mxCell>
        <mxCell id="NFMtk3u7j0-KxDk3szv8-89" value="" style="html=1;jettySize=18;whiteSpace=wrap;fontSize=13;strokeColor=#3a414a;strokeOpacity=100;strokeWidth=0.8;rounded=1;arcSize=12;edgeStyle=orthogonalEdgeStyle;startArrow=none;endArrow=block;endFill=1;exitX=1.003;exitY=0.571;exitPerimeter=0;entryX=-0.007;entryY=0.154;entryPerimeter=0;lucidId=lY9jOiyiKklC;entryDx=0;entryDy=0;" edge="1" parent="1" source="NFMtk3u7j0-KxDk3szv8-74" target="NFMtk3u7j0-KxDk3szv8-86">
          <mxGeometry width="100" height="100" relative="1" as="geometry">
            <Array as="points">
              <mxPoint x="809" y="300" />
            </Array>
          </mxGeometry>
        </mxCell>
        <mxCell id="NFMtk3u7j0-KxDk3szv8-91" value="" style="html=1;jettySize=18;whiteSpace=wrap;fontSize=13;strokeColor=#3a414a;strokeOpacity=100;strokeWidth=0.8;rounded=1;arcSize=12;edgeStyle=orthogonalEdgeStyle;startArrow=none;endArrow=block;endFill=1;exitX=0.5;exitY=1.003;exitPerimeter=0;entryX=0.5;entryY=1.004;entryPerimeter=0;lucidId=EY9jxiqE2CyB;" edge="1" parent="1" source="NFMtk3u7j0-KxDk3szv8-86" target="NFMtk3u7j0-KxDk3szv8-74">
          <mxGeometry width="100" height="100" relative="1" as="geometry">
            <Array as="points" />
          </mxGeometry>
        </mxCell>
        <mxCell id="NFMtk3u7j0-KxDk3szv8-93" value="" style="html=1;jettySize=18;whiteSpace=wrap;fontSize=13;strokeColor=#3a414a;strokeOpacity=100;strokeWidth=0.8;rounded=1;arcSize=12;edgeStyle=orthogonalEdgeStyle;startArrow=none;endArrow=block;endFill=1;exitX=1.003;exitY=0.266;exitPerimeter=0;entryX=0.111;entryY=-0.008;entryPerimeter=0;lucidId=oZ9jW1-mAZb~;" edge="1" parent="1" source="NFMtk3u7j0-KxDk3szv8-86" target="NFMtk3u7j0-KxDk3szv8-94">
          <mxGeometry width="100" height="100" relative="1" as="geometry">
            <Array as="points" />
          </mxGeometry>
        </mxCell>
        <mxCell id="NFMtk3u7j0-KxDk3szv8-94" value="products" style="html=1;overflow=block;blockSpacing=1;shape=partialRectangle;right=0;whiteSpace=wrap;fontSize=16.7;fontStyle=1;spacing=0;strokeColor=#3a414a;strokeOpacity=100;rounded=1;absoluteArcSize=1;arcSize=9;strokeWidth=0.8;" vertex="1" parent="1">
          <mxGeometry x="1170" y="323" width="180" height="45" as="geometry" />
        </mxCell>
        <mxCell id="NFMtk3u7j0-KxDk3szv8-95" value="d2" style="part=1;whiteSpace=wrap;fontSize=16.7;fontStyle=1;spacing=0;strokeColor=#3a414a;strokeOpacity=100;rounded=1;absoluteArcSize=1;arcSize=9;strokeWidth=0.8;" vertex="1" parent="NFMtk3u7j0-KxDk3szv8-94">
          <mxGeometry width="36" height="45" as="geometry" />
        </mxCell>
        <mxCell id="NFMtk3u7j0-KxDk3szv8-96" value="&lt;div style=&quot;display: flex; justify-content: center; text-align: center; align-items: baseline; font-size: 0; line-height: 1.25;margin-top: -2px;&quot;&gt;&lt;span&gt;&lt;span style=&quot;font-size:16.7px;font-weight: bold;&quot;&gt;2.0&lt;/span&gt;&lt;/span&gt;&lt;/div&gt;" style="shape=swimlane;html=1;rounded=1;arcSize=10;collapsible=0;fontStyle=0;startSize=39;whiteSpace=wrap;overflow=block;blockSpacing=1;fontSize=13;spacing=0;strokeColor=#3a414a;strokeOpacity=100;strokeWidth=0.8;" vertex="1" parent="1">
          <mxGeometry x="1387" y="120" width="150" height="120" as="geometry" />
        </mxCell>
        <mxCell id="NFMtk3u7j0-KxDk3szv8-97" value="&lt;div style=&quot;display: flex; justify-content: center; text-align: center; align-items: baseline; font-size: 0; line-height: 1.25;margin-top: -2px;&quot;&gt;&lt;span&gt;&lt;span style=&quot;font-size:16.7px;font-weight: bold;&quot;&gt;Add Items&lt;/span&gt;&lt;/span&gt;&lt;/div&gt;" style="rounded=1;arcSize=10;strokeColor=none;fillColor=none;whiteSpace=wrap;overflow=block;blockSpacing=1;html=1;fontSize=13;spacing=0;strokeOpacity=100;strokeWidth=0.8;" vertex="1" parent="NFMtk3u7j0-KxDk3szv8-96">
          <mxGeometry y="39" width="150" height="81" as="geometry" />
        </mxCell>
        <mxCell id="NFMtk3u7j0-KxDk3szv8-98" value="" style="html=1;jettySize=18;whiteSpace=wrap;fontSize=13;strokeColor=#3a414a;strokeOpacity=100;strokeWidth=0.8;rounded=1;arcSize=12;edgeStyle=orthogonalEdgeStyle;startArrow=none;endArrow=block;endFill=1;exitX=0.5;exitY=1.003;exitPerimeter=0;entryX=0.5;entryY=-0.008;entryPerimeter=0;lucidId=f09juRUKO3mT;" edge="1" parent="1" source="NFMtk3u7j0-KxDk3szv8-96" target="NFMtk3u7j0-KxDk3szv8-94">
          <mxGeometry width="100" height="100" relative="1" as="geometry">
            <Array as="points" />
          </mxGeometry>
        </mxCell>
        <mxCell id="NFMtk3u7j0-KxDk3szv8-99" value="" style="html=1;jettySize=18;whiteSpace=wrap;fontSize=13;strokeColor=#3a414a;strokeOpacity=100;strokeWidth=0.8;rounded=1;arcSize=12;edgeStyle=orthogonalEdgeStyle;startArrow=none;endArrow=block;endFill=1;exitX=0.5;exitY=1.004;exitPerimeter=0;entryX=0.495;entryY=-0.003;entryPerimeter=0;lucidId=p09jo0iXSLUz;" edge="1" parent="1" source="NFMtk3u7j0-KxDk3szv8-73" target="NFMtk3u7j0-KxDk3szv8-96">
          <mxGeometry width="100" height="100" relative="1" as="geometry">
            <Array as="points" />
          </mxGeometry>
        </mxCell>
        <mxCell id="NFMtk3u7j0-KxDk3szv8-100" value="" style="html=1;jettySize=18;whiteSpace=wrap;fontSize=13;strokeColor=#3a414a;strokeOpacity=100;strokeWidth=0.8;rounded=1;arcSize=12;edgeStyle=orthogonalEdgeStyle;startArrow=none;endArrow=block;endFill=1;exitX=0.098;exitY=1.008;exitPerimeter=0;entryX=1.003;entryY=0.716;entryPerimeter=0;lucidId=x09jXPgY.mgA;" edge="1" parent="1" source="NFMtk3u7j0-KxDk3szv8-94" target="NFMtk3u7j0-KxDk3szv8-86">
          <mxGeometry width="100" height="100" relative="1" as="geometry">
            <Array as="points" />
          </mxGeometry>
        </mxCell>
        <mxCell id="NFMtk3u7j0-KxDk3szv8-101" value="" style="html=1;jettySize=18;whiteSpace=wrap;fontSize=13;strokeColor=#3a414a;strokeOpacity=100;strokeWidth=0.8;rounded=1;arcSize=12;edgeStyle=orthogonalEdgeStyle;startArrow=none;endArrow=block;endFill=1;exitX=-0.002;exitY=0.5;exitPerimeter=0;entryX=-0.003;entryY=0.5;entryPerimeter=0;lucidId=R69j_HAdiDrW;" edge="1" parent="1" source="NFMtk3u7j0-KxDk3szv8-96" target="NFMtk3u7j0-KxDk3szv8-73">
          <mxGeometry width="100" height="100" relative="1" as="geometry">
            <Array as="points" />
          </mxGeometry>
        </mxCell>
        <mxCell id="NFMtk3u7j0-KxDk3szv8-102" value="&lt;div style=&quot;display: flex; justify-content: center; text-align: center; align-items: baseline; font-size: 0; line-height: 1.25;margin-top: -2px;&quot;&gt;&lt;span&gt;&lt;span style=&quot;font-size:16.7px;color:#3a414a;font-weight: bold;&quot;&gt;4.0&lt;/span&gt;&lt;/span&gt;&lt;/div&gt;" style="shape=swimlane;html=1;rounded=1;arcSize=10;collapsible=0;fontStyle=0;startSize=37;whiteSpace=wrap;overflow=block;blockSpacing=1;fontSize=13;spacing=0;strokeColor=#3a414a;strokeOpacity=100;strokeWidth=0.8;" vertex="1" parent="1">
          <mxGeometry x="1965" y="210" width="150" height="120" as="geometry" />
        </mxCell>
        <mxCell id="NFMtk3u7j0-KxDk3szv8-103" value="&lt;div style=&quot;display: flex; justify-content: center; text-align: center; align-items: baseline; font-size: 0; line-height: 1.25;margin-top: -2px;&quot;&gt;&lt;span&gt;&lt;span style=&quot;font-size:16.7px;color:#3a414a;font-weight: bold;&quot;&gt;Order&lt;/span&gt;&lt;/span&gt;&lt;/div&gt;" style="rounded=1;arcSize=10;strokeColor=none;fillColor=none;whiteSpace=wrap;overflow=block;blockSpacing=1;html=1;fontSize=13;spacing=0;strokeOpacity=100;strokeWidth=0.8;" vertex="1" parent="NFMtk3u7j0-KxDk3szv8-102">
          <mxGeometry y="37" width="150" height="83" as="geometry" />
        </mxCell>
        <mxCell id="NFMtk3u7j0-KxDk3szv8-104" value="Order" style="html=1;overflow=block;blockSpacing=1;shape=partialRectangle;right=0;whiteSpace=wrap;fontSize=16.7;fontColor=#3a414a;fontStyle=1;spacing=0;strokeColor=#3a414a;strokeOpacity=100;rounded=1;absoluteArcSize=1;arcSize=9;strokeWidth=0.8;" vertex="1" parent="1">
          <mxGeometry x="2220" y="405" width="180" height="45" as="geometry" />
        </mxCell>
        <mxCell id="NFMtk3u7j0-KxDk3szv8-105" value="d4" style="part=1;whiteSpace=wrap;fontSize=16.7;fontColor=#3a414a;fontStyle=1;spacing=0;strokeColor=#3a414a;strokeOpacity=100;rounded=1;absoluteArcSize=1;arcSize=9;strokeWidth=0.8;" vertex="1" parent="NFMtk3u7j0-KxDk3szv8-104">
          <mxGeometry width="36" height="45" as="geometry" />
        </mxCell>
        <mxCell id="NFMtk3u7j0-KxDk3szv8-106" value="&lt;font style=&quot;font-size: 25px;&quot;&gt;user&lt;/font&gt;" style="html=1;overflow=block;blockSpacing=1;whiteSpace=wrap;fontSize=25;fontStyle=1;spacing=0;strokeColor=#3a414a;strokeOpacity=100;rounded=1;absoluteArcSize=1;arcSize=9;strokeWidth=0.8;lucidId=n39jWXZCZQsZ;" vertex="1" parent="1">
          <mxGeometry x="2325" y="60" width="135" height="105" as="geometry" />
        </mxCell>
        <mxCell id="NFMtk3u7j0-KxDk3szv8-107" value="Item Information" style="html=1;overflow=block;blockSpacing=1;whiteSpace=wrap;fontSize=16.7;fontStyle=1;spacing=3.8;strokeOpacity=0;fillOpacity=0;rounded=1;absoluteArcSize=1;arcSize=9;fillColor=#ffffff;strokeWidth=NaN;lucidId=s39jouGkJKpT;" vertex="1" parent="1">
          <mxGeometry x="1350" y="15" width="180" height="45" as="geometry" />
        </mxCell>
        <mxCell id="NFMtk3u7j0-KxDk3szv8-109" value="Products Information" style="html=1;overflow=block;blockSpacing=1;whiteSpace=wrap;fontSize=16.7;fontStyle=1;spacing=3.8;strokeOpacity=0;fillOpacity=0;rounded=1;absoluteArcSize=1;arcSize=9;fillColor=#ffffff;strokeWidth=NaN;lucidId=m49jiQ-p_GCr;" vertex="1" parent="1">
          <mxGeometry x="1270" y="247.5" width="180" height="45" as="geometry" />
        </mxCell>
        <mxCell id="NFMtk3u7j0-KxDk3szv8-110" value="" style="html=1;jettySize=18;whiteSpace=wrap;fontSize=13;strokeColor=#3a414a;strokeOpacity=100;strokeWidth=0.8;rounded=1;arcSize=12;edgeStyle=orthogonalEdgeStyle;startArrow=none;endArrow=block;endFill=1;exitX=1.003;exitY=0.822;exitPerimeter=0;entryX=0.5;entryY=-0.008;entryPerimeter=0;lucidId=v49j66Qe5rAI;" edge="1" parent="1" source="NFMtk3u7j0-KxDk3szv8-102" target="NFMtk3u7j0-KxDk3szv8-104">
          <mxGeometry width="100" height="100" relative="1" as="geometry">
            <Array as="points" />
          </mxGeometry>
        </mxCell>
        <mxCell id="NFMtk3u7j0-KxDk3szv8-111" value="" style="html=1;jettySize=18;whiteSpace=wrap;fontSize=13;strokeColor=#3a414a;strokeOpacity=100;strokeWidth=0.8;rounded=1;arcSize=12;edgeStyle=orthogonalEdgeStyle;startArrow=none;endArrow=block;endFill=1;exitX=0.5;exitY=1.004;exitPerimeter=0;entryX=1.003;entryY=0.344;entryPerimeter=0;lucidId=.49jupMsek7L;" edge="1" parent="1" source="NFMtk3u7j0-KxDk3szv8-106" target="NFMtk3u7j0-KxDk3szv8-102">
          <mxGeometry width="100" height="100" relative="1" as="geometry">
            <Array as="points" />
          </mxGeometry>
        </mxCell>
        <mxCell id="NFMtk3u7j0-KxDk3szv8-112" value="" style="html=1;jettySize=18;whiteSpace=wrap;fontSize=13;strokeColor=#3a414a;strokeOpacity=100;strokeWidth=0.8;rounded=1;arcSize=12;edgeStyle=orthogonalEdgeStyle;startArrow=none;endArrow=block;endFill=1;exitX=0.5;exitY=-0.003;exitPerimeter=0;entryX=-0.003;entryY=0.5;entryPerimeter=0;lucidId=V59jNBXCnA~h;" edge="1" parent="1" source="NFMtk3u7j0-KxDk3szv8-102" target="NFMtk3u7j0-KxDk3szv8-106">
          <mxGeometry width="100" height="100" relative="1" as="geometry">
            <Array as="points">
              <mxPoint x="2040" y="110" />
              <mxPoint x="2325" y="110" />
            </Array>
          </mxGeometry>
        </mxCell>
        <mxCell id="NFMtk3u7j0-KxDk3szv8-116" value="comfirm add items" style="html=1;overflow=block;blockSpacing=1;whiteSpace=wrap;fontSize=16.7;fontStyle=1;spacing=3.8;strokeOpacity=0;fillOpacity=0;rounded=1;absoluteArcSize=1;arcSize=9;fillColor=#ffffff;strokeWidth=NaN;lucidId=K79jWEzripSU;" vertex="1" parent="1">
          <mxGeometry x="1070" y="75" width="180" height="45" as="geometry" />
        </mxCell>
        <mxCell id="NFMtk3u7j0-KxDk3szv8-123" value="" style="html=1;jettySize=18;whiteSpace=wrap;fontSize=13;strokeColor=#3a414a;strokeOpacity=100;strokeWidth=0.8;rounded=1;arcSize=12;edgeStyle=orthogonalEdgeStyle;startArrow=none;endArrow=block;endFill=1;exitX=-0.003;exitY=0.21;exitPerimeter=0;entryX=0.219;entryY=-0.003;entryPerimeter=0;lucidId=D-9jmIqKcoiY;" edge="1" parent="1" source="NFMtk3u7j0-KxDk3szv8-72" target="NFMtk3u7j0-KxDk3szv8-86">
          <mxGeometry width="100" height="100" relative="1" as="geometry">
            <Array as="points" />
          </mxGeometry>
        </mxCell>
        <mxCell id="NFMtk3u7j0-KxDk3szv8-151" value="&lt;span style=&quot;color: rgb(58, 65, 74); font-family: Helvetica; font-size: 17px; font-style: normal; font-variant-ligatures: normal; font-variant-caps: normal; font-weight: 700; letter-spacing: normal; orphans: 2; text-align: center; text-indent: 0px; text-transform: none; widows: 2; word-spacing: 0px; -webkit-text-stroke-width: 0px; white-space: normal; background-color: rgb(251, 251, 251); text-decoration-thickness: initial; text-decoration-style: initial; text-decoration-color: initial; display: inline !important; float: none;&quot;&gt;Username and Password&lt;/span&gt;" style="text;whiteSpace=wrap;html=1;" vertex="1" parent="1">
          <mxGeometry x="1402" y="-316" width="240" height="40" as="geometry" />
        </mxCell>
        <mxCell id="NFMtk3u7j0-KxDk3szv8-124" value="" style="html=1;jettySize=18;whiteSpace=wrap;fontSize=13;strokeColor=#3a414a;strokeOpacity=100;strokeWidth=0.8;rounded=1;arcSize=12;edgeStyle=orthogonalEdgeStyle;startArrow=none;endArrow=block;endFill=1;exitX=0.831;exitY=-0.003;exitPerimeter=0;entryX=-0.003;entryY=0.783;entryPerimeter=0;lucidId=Y-9jpDQltwuw;" edge="1" parent="1" source="NFMtk3u7j0-KxDk3szv8-86" target="NFMtk3u7j0-KxDk3szv8-72">
          <mxGeometry width="100" height="100" relative="1" as="geometry">
            <Array as="points" />
          </mxGeometry>
        </mxCell>
        <mxCell id="NFMtk3u7j0-KxDk3szv8-128" value="" style="html=1;jettySize=18;whiteSpace=wrap;fontSize=13;strokeColor=#3a414a;strokeOpacity=100;strokeWidth=0.8;rounded=1;arcSize=12;edgeStyle=orthogonalEdgeStyle;startArrow=none;endArrow=block;endFill=1;exitX=1.003;exitY=0.862;exitPerimeter=0;entryX=-0.002;entryY=0.252;entryPerimeter=0;lucidId=o~9jILL-wKy0;" edge="1" parent="1" source="NFMtk3u7j0-KxDk3szv8-72" target="NFMtk3u7j0-KxDk3szv8-76">
          <mxGeometry width="100" height="100" relative="1" as="geometry">
            <Array as="points" />
          </mxGeometry>
        </mxCell>
        <mxCell id="NFMtk3u7j0-KxDk3szv8-130" value="categories" style="html=1;overflow=block;blockSpacing=1;shape=partialRectangle;right=0;whiteSpace=wrap;fontSize=16.7;fontStyle=1;spacing=0;strokeColor=#3a414a;strokeOpacity=100;rounded=1;absoluteArcSize=1;arcSize=9;strokeWidth=0.8;" vertex="1" parent="1">
          <mxGeometry x="1590" y="323" width="180" height="45" as="geometry" />
        </mxCell>
        <mxCell id="NFMtk3u7j0-KxDk3szv8-131" value="d3" style="part=1;whiteSpace=wrap;fontSize=16.7;fontStyle=1;spacing=0;strokeColor=#3a414a;strokeOpacity=100;rounded=1;absoluteArcSize=1;arcSize=9;strokeWidth=0.8;" vertex="1" parent="NFMtk3u7j0-KxDk3szv8-130">
          <mxGeometry width="36" height="45" as="geometry" />
        </mxCell>
        <mxCell id="NFMtk3u7j0-KxDk3szv8-132" value="" style="html=1;jettySize=18;whiteSpace=wrap;fontSize=13;strokeColor=#3a414a;strokeOpacity=100;strokeWidth=0.8;rounded=1;arcSize=12;edgeStyle=orthogonalEdgeStyle;startArrow=none;endArrow=block;endFill=1;exitX=1.003;exitY=0.5;exitPerimeter=0;entryX=0.5;entryY=-0.008;entryPerimeter=0;lucidId=zb-j1ceLyUWI;" edge="1" parent="1" source="NFMtk3u7j0-KxDk3szv8-96" target="NFMtk3u7j0-KxDk3szv8-130">
          <mxGeometry width="100" height="100" relative="1" as="geometry">
            <Array as="points" />
          </mxGeometry>
        </mxCell>
        <mxCell id="NFMtk3u7j0-KxDk3szv8-134" value="&lt;div style=&quot;display: flex; justify-content: center; text-align: center; align-items: baseline; font-size: 0; line-height: 1.25;margin-top: -2px;&quot;&gt;&lt;span&gt;&lt;span style=&quot;font-size:16.7px;color:#3a414a;font-weight: bold;&quot;&gt;4.0&lt;/span&gt;&lt;/span&gt;&lt;/div&gt;" style="shape=swimlane;html=1;rounded=1;arcSize=10;collapsible=0;fontStyle=0;startSize=37;whiteSpace=wrap;overflow=block;blockSpacing=1;fontSize=13;spacing=0;strokeColor=#3a414a;strokeOpacity=100;strokeWidth=0.8;" vertex="1" parent="1">
          <mxGeometry x="2250" y="-311" width="150" height="120" as="geometry" />
        </mxCell>
        <mxCell id="NFMtk3u7j0-KxDk3szv8-135" value="&lt;div style=&quot;display: flex; justify-content: center; text-align: center; align-items: baseline; line-height: 1.25; margin-top: -2px;&quot;&gt;&lt;span style=&quot;color: rgb(58, 65, 74);&quot;&gt;&lt;b style=&quot;&quot;&gt;&lt;font style=&quot;font-size: 17px;&quot;&gt;Add to cart&lt;/font&gt;&lt;/b&gt;&lt;/span&gt;&lt;/div&gt;" style="rounded=1;arcSize=10;strokeColor=none;fillColor=none;whiteSpace=wrap;overflow=block;blockSpacing=1;html=1;fontSize=13;spacing=0;strokeOpacity=100;strokeWidth=0.8;" vertex="1" parent="NFMtk3u7j0-KxDk3szv8-134">
          <mxGeometry y="37" width="150" height="83" as="geometry" />
        </mxCell>
        <mxCell id="NFMtk3u7j0-KxDk3szv8-136" value="cart" style="html=1;overflow=block;blockSpacing=1;shape=partialRectangle;right=0;whiteSpace=wrap;fontSize=16.7;fontStyle=1;spacing=0;strokeColor=#3a414a;strokeOpacity=100;rounded=1;absoluteArcSize=1;arcSize=9;strokeWidth=0.8;" vertex="1" parent="1">
          <mxGeometry x="2280" y="-525" width="180" height="45" as="geometry" />
        </mxCell>
        <mxCell id="NFMtk3u7j0-KxDk3szv8-137" value="d5" style="part=1;whiteSpace=wrap;fontSize=16.7;fontStyle=1;spacing=0;strokeColor=#3a414a;strokeOpacity=100;rounded=1;absoluteArcSize=1;arcSize=9;strokeWidth=0.8;" vertex="1" parent="NFMtk3u7j0-KxDk3szv8-136">
          <mxGeometry width="36" height="45" as="geometry" />
        </mxCell>
        <mxCell id="NFMtk3u7j0-KxDk3szv8-138" value="" style="html=1;jettySize=18;whiteSpace=wrap;fontSize=13;strokeColor=#3a414a;strokeOpacity=100;strokeWidth=0.8;rounded=1;arcSize=12;edgeStyle=orthogonalEdgeStyle;startArrow=none;endArrow=block;endFill=1;lucidId=xi-jPc4GSU2P;exitX=0.75;exitY=0;exitDx=0;exitDy=0;entryX=0.451;entryY=0.992;entryDx=0;entryDy=0;entryPerimeter=0;" edge="1" parent="1" source="NFMtk3u7j0-KxDk3szv8-134" target="NFMtk3u7j0-KxDk3szv8-136">
          <mxGeometry width="100" height="100" relative="1" as="geometry">
            <Array as="points" />
            <mxPoint x="2160" y="-420" as="sourcePoint" />
            <mxPoint x="2360" y="-470" as="targetPoint" />
          </mxGeometry>
        </mxCell>
        <mxCell id="NFMtk3u7j0-KxDk3szv8-140" value="" style="html=1;jettySize=18;whiteSpace=wrap;fontSize=13;strokeColor=#3a414a;strokeOpacity=100;strokeWidth=0.8;rounded=1;arcSize=12;edgeStyle=orthogonalEdgeStyle;startArrow=none;endArrow=block;endFill=1;exitX=-0.002;exitY=0.5;exitPerimeter=0;entryX=0.5;entryY=-0.004;entryPerimeter=0;lucidId=jj-jFGJU9x5L;" edge="1" parent="1" source="NFMtk3u7j0-KxDk3szv8-134" target="NFMtk3u7j0-KxDk3szv8-106">
          <mxGeometry width="100" height="100" relative="1" as="geometry">
            <Array as="points" />
          </mxGeometry>
        </mxCell>
        <mxCell id="-h-4W2uk8mfo008ZoCjG-1" value="&lt;font style=&quot;font-size: 18px;&quot;&gt;&lt;b style=&quot;font-size: 18px;&quot;&gt;add to list&lt;/b&gt;&lt;/font&gt;" style="text;html=1;align=center;verticalAlign=middle;resizable=0;points=[];autosize=1;strokeColor=none;fillColor=none;fontSize=18;" vertex="1" parent="1">
          <mxGeometry x="2450" y="-281.5" width="110" height="40" as="geometry" />
        </mxCell>
        <mxCell id="NFMtk3u7j0-KxDk3szv8-146" value="&lt;span style=&quot;color: rgb(58, 65, 74); font-family: &amp;quot;TH Sarabun New&amp;quot;; font-size: 25px; font-style: normal; font-variant-ligatures: normal; font-variant-caps: normal; font-weight: 700; letter-spacing: normal; orphans: 2; text-align: center; text-indent: 0px; text-transform: none; widows: 2; word-spacing: 0px; -webkit-text-stroke-width: 0px; white-space: normal; background-color: rgb(251, 251, 251); text-decoration-thickness: initial; text-decoration-style: initial; text-decoration-color: initial; display: inline !important; float: none;&quot;&gt;Search keyword&lt;/span&gt;" style="text;whiteSpace=wrap;html=1;" vertex="1" parent="1">
          <mxGeometry x="980" y="-330" width="140" height="33" as="geometry" />
        </mxCell>
        <mxCell id="NFMtk3u7j0-KxDk3szv8-147" value="&lt;span style=&quot;color: rgb(58, 65, 74); font-family: &amp;quot;TH Sarabun New&amp;quot;; font-size: 23px; font-style: normal; font-variant-ligatures: normal; font-variant-caps: normal; font-weight: 700; letter-spacing: normal; orphans: 2; text-align: center; text-indent: 0px; text-transform: none; widows: 2; word-spacing: 0px; -webkit-text-stroke-width: 0px; white-space: normal; background-color: rgb(251, 251, 251); text-decoration-thickness: initial; text-decoration-style: initial; text-decoration-color: initial; display: inline !important; float: none;&quot;&gt;Search Info&lt;/span&gt;" style="text;whiteSpace=wrap;html=1;" vertex="1" parent="1">
          <mxGeometry x="995" y="-276" width="110" height="50" as="geometry" />
        </mxCell>
        <mxCell id="NFMtk3u7j0-KxDk3szv8-148" value="Products Information" style="html=1;overflow=block;blockSpacing=1;whiteSpace=wrap;fontSize=16.7;fontStyle=1;spacing=3.8;strokeOpacity=0;fillOpacity=0;rounded=1;absoluteArcSize=1;arcSize=9;fillColor=#ffffff;strokeWidth=NaN;lucidId=m49jiQ-p_GCr;" vertex="1" parent="1">
          <mxGeometry x="1545" y="135" width="180" height="45" as="geometry" />
        </mxCell>
        <mxCell id="NFMtk3u7j0-KxDk3szv8-149" value="&lt;span style=&quot;color: rgb(58, 65, 74); font-family: Helvetica; font-size: 17px; font-style: normal; font-variant-ligatures: normal; font-variant-caps: normal; font-weight: 700; letter-spacing: normal; orphans: 2; text-align: center; text-indent: 0px; text-transform: none; widows: 2; word-spacing: 0px; -webkit-text-stroke-width: 0px; white-space: normal; background-color: rgb(251, 251, 251); text-decoration-thickness: initial; text-decoration-style: initial; text-decoration-color: initial; display: inline !important; float: none;&quot;&gt;Confirmation&lt;/span&gt;" style="text;whiteSpace=wrap;html=1;" vertex="1" parent="1">
          <mxGeometry x="1440" y="-60" width="140" height="40" as="geometry" />
        </mxCell>
        <mxCell id="NFMtk3u7j0-KxDk3szv8-150" value="&lt;span style=&quot;color: rgb(58, 65, 74); font-family: Helvetica; font-size: 17px; font-style: normal; font-variant-ligatures: normal; font-variant-caps: normal; font-weight: 700; letter-spacing: normal; orphans: 2; text-align: center; text-indent: 0px; text-transform: none; widows: 2; word-spacing: 0px; -webkit-text-stroke-width: 0px; white-space: normal; background-color: rgb(251, 251, 251); text-decoration-thickness: initial; text-decoration-style: initial; text-decoration-color: initial; display: inline !important; float: none;&quot;&gt;Confirmation&lt;/span&gt;" style="text;whiteSpace=wrap;html=1;" vertex="1" parent="1">
          <mxGeometry x="1440" y="-360" width="140" height="40" as="geometry" />
        </mxCell>
        <mxCell id="NFMtk3u7j0-KxDk3szv8-152" value="&lt;span style=&quot;color: rgb(58, 65, 74); font-family: Helvetica; font-size: 17px; font-style: normal; font-variant-ligatures: normal; font-variant-caps: normal; font-weight: 700; letter-spacing: normal; orphans: 2; text-align: center; text-indent: 0px; text-transform: none; widows: 2; word-spacing: 0px; -webkit-text-stroke-width: 0px; white-space: normal; background-color: rgb(251, 251, 251); text-decoration-thickness: initial; text-decoration-style: initial; text-decoration-color: initial; display: inline !important; float: none;&quot;&gt;user information&lt;/span&gt;" style="text;whiteSpace=wrap;html=1;" vertex="1" parent="1">
          <mxGeometry x="1402" y="-255" width="170" height="40" as="geometry" />
        </mxCell>
        <mxCell id="NFMtk3u7j0-KxDk3szv8-154" value="&lt;span style=&quot;color: rgb(58, 65, 74); font-family: Helvetica; font-size: 17px; font-style: normal; font-variant-ligatures: normal; font-variant-caps: normal; font-weight: 700; letter-spacing: normal; orphans: 2; text-align: center; text-indent: 0px; text-transform: none; widows: 2; word-spacing: 0px; -webkit-text-stroke-width: 0px; white-space: normal; background-color: rgb(251, 251, 251); text-decoration-thickness: initial; text-decoration-style: initial; text-decoration-color: initial; display: inline !important; float: none;&quot;&gt;user information&lt;/span&gt;" style="text;whiteSpace=wrap;html=1;" vertex="1" parent="1">
          <mxGeometry x="1830" y="-200" width="170" height="40" as="geometry" />
        </mxCell>
        <mxCell id="NFMtk3u7j0-KxDk3szv8-153" value="&lt;span style=&quot;color: rgb(58, 65, 74); font-family: Helvetica; font-style: normal; font-variant-ligatures: normal; font-variant-caps: normal; font-weight: 700; letter-spacing: normal; orphans: 2; text-align: center; text-indent: 0px; text-transform: none; widows: 2; word-spacing: 0px; -webkit-text-stroke-width: 0px; white-space: normal; background-color: rgb(251, 251, 251); text-decoration-thickness: initial; text-decoration-style: initial; text-decoration-color: initial; float: none; display: inline !important;&quot;&gt;&lt;font style=&quot;font-size: 17px;&quot;&gt;Username and Password&lt;/font&gt;&lt;/span&gt;" style="text;whiteSpace=wrap;html=1;" vertex="1" parent="1">
          <mxGeometry x="1395" y="-170" width="170" height="30" as="geometry" />
        </mxCell>
        <mxCell id="NFMtk3u7j0-KxDk3szv8-156" value="" style="endArrow=classic;html=1;rounded=0;entryX=1.024;entryY=0.4;entryDx=0;entryDy=0;entryPerimeter=0;" edge="1" parent="1" target="NFMtk3u7j0-KxDk3szv8-135">
          <mxGeometry width="50" height="50" relative="1" as="geometry">
            <mxPoint x="2460" y="120" as="sourcePoint" />
            <mxPoint x="2560" y="-250" as="targetPoint" />
            <Array as="points">
              <mxPoint x="2560" y="120" />
              <mxPoint x="2560" y="-241" />
            </Array>
          </mxGeometry>
        </mxCell>
        <mxCell id="-h-4W2uk8mfo008ZoCjG-14" value="&lt;b&gt;&lt;font style=&quot;font-size: 17px;&quot;&gt;Confirm to cart&lt;/font&gt;&lt;/b&gt;" style="text;html=1;align=center;verticalAlign=middle;resizable=0;points=[];autosize=1;strokeColor=none;fillColor=none;" vertex="1" parent="1">
          <mxGeometry x="2240" y="-100" width="150" height="30" as="geometry" />
        </mxCell>
        <mxCell id="NFMtk3u7j0-KxDk3szv8-157" value="&lt;font style=&quot;font-size: 17px;&quot;&gt;ข้อมูลสินค้า&lt;/font&gt;" style="text;html=1;align=center;verticalAlign=middle;resizable=0;points=[];autosize=1;strokeColor=none;fillColor=none;rotation=0;" vertex="1" parent="1">
          <mxGeometry x="2370" y="-400" width="100" height="30" as="geometry" />
        </mxCell>
        <mxCell id="-h-4W2uk8mfo008ZoCjG-16" value="&lt;div style=&quot;display: flex; justify-content: center; text-align: center; align-items: baseline; font-size: 0; line-height: 1.25;margin-top: -2px;&quot;&gt;&lt;span&gt;&lt;span style=&quot;font-size:16.7px;color:#3a414a;font-weight: bold;&quot;&gt;5.0&lt;/span&gt;&lt;/span&gt;&lt;/div&gt;" style="shape=swimlane;html=1;rounded=1;arcSize=10;collapsible=0;fontStyle=0;startSize=37;whiteSpace=wrap;overflow=block;blockSpacing=1;fontSize=13;spacing=0;strokeColor=#3a414a;strokeOpacity=100;strokeWidth=0.8;" vertex="1" parent="1">
          <mxGeometry x="1965" y="210" width="150" height="120" as="geometry" />
        </mxCell>
        <mxCell id="-h-4W2uk8mfo008ZoCjG-17" value="&lt;div style=&quot;display: flex; justify-content: center; text-align: center; align-items: baseline; font-size: 0; line-height: 1.25;margin-top: -2px;&quot;&gt;&lt;span&gt;&lt;span style=&quot;font-size:16.7px;color:#3a414a;font-weight: bold;&quot;&gt;Order&lt;/span&gt;&lt;/span&gt;&lt;/div&gt;" style="rounded=1;arcSize=10;strokeColor=none;fillColor=none;whiteSpace=wrap;overflow=block;blockSpacing=1;html=1;fontSize=13;spacing=0;strokeOpacity=100;strokeWidth=0.8;" vertex="1" parent="-h-4W2uk8mfo008ZoCjG-16">
          <mxGeometry y="37" width="150" height="83" as="geometry" />
        </mxCell>
        <mxCell id="NFMtk3u7j0-KxDk3szv8-159" value="&lt;span style=&quot;color: rgb(58, 65, 74); font-family: Helvetica; font-size: 17px; font-style: normal; font-variant-ligatures: normal; font-variant-caps: normal; font-weight: 700; letter-spacing: normal; orphans: 2; text-align: center; text-indent: 0px; text-transform: none; widows: 2; word-spacing: 0px; -webkit-text-stroke-width: 0px; white-space: normal; background-color: rgb(251, 251, 251); text-decoration-thickness: initial; text-decoration-style: initial; text-decoration-color: initial; display: inline !important; float: none;&quot;&gt;Make order info&amp;nbsp;&amp;nbsp;&lt;/span&gt;" style="text;whiteSpace=wrap;html=1;" vertex="1" parent="1">
          <mxGeometry x="2140" y="212.5" width="170" height="40" as="geometry" />
        </mxCell>
        <mxCell id="NFMtk3u7j0-KxDk3szv8-161" value="&lt;span style=&quot;color: rgb(58, 65, 74); font-family: Helvetica; font-size: 17px; font-style: normal; font-variant-ligatures: normal; font-variant-caps: normal; font-weight: 700; letter-spacing: normal; orphans: 2; text-align: center; text-indent: 0px; text-transform: none; widows: 2; word-spacing: 0px; -webkit-text-stroke-width: 0px; white-space: normal; background-color: rgb(251, 251, 251); text-decoration-thickness: initial; text-decoration-style: initial; text-decoration-color: initial; display: inline !important; float: none;&quot;&gt;Order&amp;nbsp; info&lt;/span&gt;" style="text;whiteSpace=wrap;html=1;" vertex="1" parent="1">
          <mxGeometry x="2150" y="80" width="120" height="40" as="geometry" />
        </mxCell>
        <mxCell id="-h-4W2uk8mfo008ZoCjG-20" value="&lt;span style=&quot;color: rgb(58, 65, 74); font-family: Helvetica; font-size: 17px; font-style: normal; font-variant-ligatures: normal; font-variant-caps: normal; font-weight: 700; letter-spacing: normal; orphans: 2; text-align: center; text-indent: 0px; text-transform: none; widows: 2; word-spacing: 0px; -webkit-text-stroke-width: 0px; white-space: normal; background-color: rgb(251, 251, 251); text-decoration-thickness: initial; text-decoration-style: initial; text-decoration-color: initial; display: inline !important; float: none;&quot;&gt;Order&amp;nbsp; info&lt;/span&gt;" style="text;whiteSpace=wrap;html=1;" vertex="1" parent="1">
          <mxGeometry x="2180" y="310" width="120" height="40" as="geometry" />
        </mxCell>
        <mxCell id="-h-4W2uk8mfo008ZoCjG-44" style="edgeStyle=orthogonalEdgeStyle;rounded=0;orthogonalLoop=1;jettySize=auto;html=1;exitX=0;exitY=0.75;exitDx=0;exitDy=0;entryX=0.084;entryY=0.022;entryDx=0;entryDy=0;entryPerimeter=0;" edge="1" parent="1" source="-h-4W2uk8mfo008ZoCjG-30" target="NFMtk3u7j0-KxDk3szv8-72">
          <mxGeometry relative="1" as="geometry">
            <mxPoint x="1270" y="-320" as="targetPoint" />
            <Array as="points">
              <mxPoint x="1220" y="-480" />
              <mxPoint x="1220" y="-340" />
              <mxPoint x="1271" y="-340" />
            </Array>
          </mxGeometry>
        </mxCell>
        <mxCell id="-h-4W2uk8mfo008ZoCjG-51" style="edgeStyle=orthogonalEdgeStyle;rounded=0;orthogonalLoop=1;jettySize=auto;html=1;exitX=0.25;exitY=0;exitDx=0;exitDy=0;entryX=0;entryY=0.5;entryDx=0;entryDy=0;" edge="1" parent="1" source="-h-4W2uk8mfo008ZoCjG-30" target="NFMtk3u7j0-KxDk3szv8-171">
          <mxGeometry relative="1" as="geometry">
            <mxPoint x="1279.1176470588234" y="-690.0000000000001" as="targetPoint" />
          </mxGeometry>
        </mxCell>
        <mxCell id="-h-4W2uk8mfo008ZoCjG-30" value="&lt;div style=&quot;display: flex; justify-content: center; text-align: center; align-items: baseline; font-size: 0; line-height: 1.25;margin-top: -2px;&quot;&gt;&lt;span&gt;&lt;span style=&quot;font-size:16.7px;font-weight: bold;&quot;&gt;6.0&lt;/span&gt;&lt;/span&gt;&lt;/div&gt;" style="shape=swimlane;html=1;rounded=1;arcSize=10;collapsible=0;fontStyle=0;startSize=39;whiteSpace=wrap;overflow=block;blockSpacing=1;fontSize=13;spacing=0;strokeColor=#3a414a;strokeOpacity=100;strokeWidth=0.8;" vertex="1" parent="1">
          <mxGeometry x="1240" y="-570" width="155" height="120" as="geometry" />
        </mxCell>
        <mxCell id="-h-4W2uk8mfo008ZoCjG-31" value="&lt;div style=&quot;display: flex; justify-content: center; text-align: center; align-items: baseline; font-size: 0; line-height: 1.25;margin-top: -2px;&quot;&gt;&lt;span&gt;&lt;span style=&quot;font-size:16.7px;font-weight: bold;&quot;&gt;Purchase&lt;/span&gt;&lt;/span&gt;&lt;/div&gt;" style="rounded=1;arcSize=10;strokeColor=none;fillColor=none;whiteSpace=wrap;overflow=block;blockSpacing=1;html=1;fontSize=13;spacing=0;strokeOpacity=100;strokeWidth=0.8;" vertex="1" parent="-h-4W2uk8mfo008ZoCjG-30">
          <mxGeometry x="5" y="39" width="150" height="81" as="geometry" />
        </mxCell>
        <mxCell id="-h-4W2uk8mfo008ZoCjG-33" value="&lt;font style=&quot;font-size: 16px;&quot;&gt;&lt;b&gt;purchase info&lt;/b&gt;&lt;/font&gt;" style="text;html=1;align=center;verticalAlign=middle;resizable=0;points=[];autosize=1;strokeColor=none;fillColor=none;" vertex="1" parent="1">
          <mxGeometry x="1395" y="-720" width="130" height="30" as="geometry" />
        </mxCell>
        <mxCell id="NFMtk3u7j0-KxDk3szv8-168" value="" style="endArrow=classic;html=1;rounded=0;entryX=0.5;entryY=1;entryDx=0;entryDy=0;" edge="1" parent="1" target="-h-4W2uk8mfo008ZoCjG-31">
          <mxGeometry width="50" height="50" relative="1" as="geometry">
            <mxPoint x="1320" y="-314" as="sourcePoint" />
            <mxPoint x="1370" y="-364" as="targetPoint" />
          </mxGeometry>
        </mxCell>
        <mxCell id="-h-4W2uk8mfo008ZoCjG-45" value="&lt;b&gt;&lt;font style=&quot;font-size: 15px;&quot;&gt;Comfirm to Purchase&lt;/font&gt;&lt;/b&gt;" style="text;html=1;align=center;verticalAlign=middle;resizable=0;points=[];autosize=1;strokeColor=none;fillColor=none;" vertex="1" parent="1">
          <mxGeometry x="1047" y="-430" width="180" height="30" as="geometry" />
        </mxCell>
        <mxCell id="-h-4W2uk8mfo008ZoCjG-46" value="&lt;b&gt;&lt;font style=&quot;font-size: 16px;&quot;&gt;pay for purchase&lt;/font&gt;&lt;/b&gt;" style="text;html=1;align=center;verticalAlign=middle;resizable=0;points=[];autosize=1;strokeColor=none;fillColor=none;" vertex="1" parent="1">
          <mxGeometry x="1320" y="-428" width="150" height="30" as="geometry" />
        </mxCell>
        <mxCell id="NFMtk3u7j0-KxDk3szv8-171" value="Order Detail" style="html=1;overflow=block;blockSpacing=1;shape=partialRectangle;right=0;whiteSpace=wrap;fontSize=16.7;fontColor=#3a414a;fontStyle=1;spacing=0;strokeColor=#3a414a;strokeOpacity=100;rounded=1;absoluteArcSize=1;arcSize=9;strokeWidth=0.8;" vertex="1" parent="1">
          <mxGeometry x="1612.5" y="-710" width="180" height="45" as="geometry" />
        </mxCell>
        <mxCell id="NFMtk3u7j0-KxDk3szv8-172" value="d6" style="part=1;whiteSpace=wrap;fontSize=16.7;fontColor=#3a414a;fontStyle=1;spacing=0;strokeColor=#3a414a;strokeOpacity=100;rounded=1;absoluteArcSize=1;arcSize=9;strokeWidth=0.8;" vertex="1" parent="NFMtk3u7j0-KxDk3szv8-171">
          <mxGeometry width="36" height="45" as="geometry" />
        </mxCell>
        <mxCell id="NFMtk3u7j0-KxDk3szv8-174" value="Order Detail" style="html=1;overflow=block;blockSpacing=1;shape=partialRectangle;right=0;whiteSpace=wrap;fontSize=16.7;fontColor=#3a414a;fontStyle=1;spacing=0;strokeColor=#3a414a;strokeOpacity=100;rounded=1;absoluteArcSize=1;arcSize=9;strokeWidth=0.8;" vertex="1" parent="1">
          <mxGeometry x="3200" y="195" width="180" height="45" as="geometry" />
        </mxCell>
        <mxCell id="NFMtk3u7j0-KxDk3szv8-175" value="d6" style="part=1;whiteSpace=wrap;fontSize=16.7;fontColor=#3a414a;fontStyle=1;spacing=0;strokeColor=#3a414a;strokeOpacity=100;rounded=1;absoluteArcSize=1;arcSize=9;strokeWidth=0.8;" vertex="1" parent="NFMtk3u7j0-KxDk3szv8-174">
          <mxGeometry width="36" height="45" as="geometry" />
        </mxCell>
        <mxCell id="NFMtk3u7j0-KxDk3szv8-176" value="&lt;div style=&quot;display: flex; justify-content: center; text-align: center; align-items: baseline; font-size: 0; line-height: 1.25;margin-top: -2px;&quot;&gt;&lt;span&gt;&lt;span style=&quot;font-size:16.7px;font-weight: bold;&quot;&gt;7.0&lt;/span&gt;&lt;/span&gt;&lt;/div&gt;" style="shape=swimlane;html=1;rounded=1;arcSize=10;collapsible=0;fontStyle=0;startSize=39;whiteSpace=wrap;overflow=block;blockSpacing=1;fontSize=13;spacing=0;strokeColor=#3a414a;strokeOpacity=100;strokeWidth=0.8;" vertex="1" parent="1">
          <mxGeometry x="2720" y="165" width="155" height="120" as="geometry" />
        </mxCell>
        <mxCell id="NFMtk3u7j0-KxDk3szv8-177" value="&lt;div style=&quot;display: flex; justify-content: center; text-align: center; align-items: baseline; font-size: 0; line-height: 1.25;margin-top: -2px;&quot;&gt;&lt;span&gt;&lt;span style=&quot;font-size:16.7px;font-weight: bold;&quot;&gt;Reviews&lt;/span&gt;&lt;/span&gt;&lt;/div&gt;" style="rounded=1;arcSize=10;strokeColor=none;fillColor=none;whiteSpace=wrap;overflow=block;blockSpacing=1;html=1;fontSize=13;spacing=0;strokeOpacity=100;strokeWidth=0.8;" vertex="1" parent="NFMtk3u7j0-KxDk3szv8-176">
          <mxGeometry x="5" y="39" width="150" height="81" as="geometry" />
        </mxCell>
        <mxCell id="NFMtk3u7j0-KxDk3szv8-178" value="" style="endArrow=classic;html=1;rounded=0;" edge="1" parent="1">
          <mxGeometry width="50" height="50" relative="1" as="geometry">
            <mxPoint x="2450" y="170" as="sourcePoint" />
            <mxPoint x="2720" y="210" as="targetPoint" />
            <Array as="points">
              <mxPoint x="2450" y="210" />
            </Array>
          </mxGeometry>
        </mxCell>
        <mxCell id="NFMtk3u7j0-KxDk3szv8-179" value="&lt;b&gt;&lt;span style=&quot;font-size: 16px;&quot;&gt;Info product to&amp;nbsp;&lt;/span&gt;&lt;font style=&quot;font-size: 15px;&quot;&gt;purchase&lt;/font&gt;&lt;/b&gt;" style="text;html=1;align=center;verticalAlign=middle;resizable=0;points=[];autosize=1;strokeColor=none;fillColor=none;" vertex="1" parent="1">
          <mxGeometry x="2485" y="180" width="210" height="30" as="geometry" />
        </mxCell>
        <mxCell id="NFMtk3u7j0-KxDk3szv8-180" value="" style="endArrow=classic;html=1;rounded=0;exitX=0;exitY=0.5;exitDx=0;exitDy=0;" edge="1" parent="1" source="NFMtk3u7j0-KxDk3szv8-175">
          <mxGeometry width="50" height="50" relative="1" as="geometry">
            <mxPoint x="3030" y="200" as="sourcePoint" />
            <mxPoint x="2880" y="218" as="targetPoint" />
          </mxGeometry>
        </mxCell>
        <mxCell id="NFMtk3u7j0-KxDk3szv8-181" value="&lt;b&gt;&lt;span style=&quot;font-size: 16px;&quot;&gt;Info product to&amp;nbsp;&lt;/span&gt;&lt;font style=&quot;font-size: 15px;&quot;&gt;purchase&lt;/font&gt;&lt;/b&gt;" style="text;html=1;align=center;verticalAlign=middle;resizable=0;points=[];autosize=1;strokeColor=none;fillColor=none;" vertex="1" parent="1">
          <mxGeometry x="2940" y="182.5" width="210" height="30" as="geometry" />
        </mxCell>
        <mxCell id="NFMtk3u7j0-KxDk3szv8-184" value="Reviews Detail" style="html=1;overflow=block;blockSpacing=1;shape=partialRectangle;right=0;whiteSpace=wrap;fontSize=16.7;fontColor=#3a414a;fontStyle=1;spacing=0;strokeColor=#3a414a;strokeOpacity=100;rounded=1;absoluteArcSize=1;arcSize=9;strokeWidth=0.8;align=right;" vertex="1" parent="1">
          <mxGeometry x="3200" y="261" width="180" height="45" as="geometry" />
        </mxCell>
        <mxCell id="NFMtk3u7j0-KxDk3szv8-185" value="d7" style="part=1;whiteSpace=wrap;fontSize=16.7;fontColor=#3a414a;fontStyle=1;spacing=0;strokeColor=#3a414a;strokeOpacity=100;rounded=1;absoluteArcSize=1;arcSize=9;strokeWidth=0.8;" vertex="1" parent="NFMtk3u7j0-KxDk3szv8-184">
          <mxGeometry width="36" height="45" as="geometry" />
        </mxCell>
        <mxCell id="NFMtk3u7j0-KxDk3szv8-187" value="" style="endArrow=classic;startArrow=classic;html=1;rounded=0;entryX=0;entryY=0.5;entryDx=0;entryDy=0;exitX=1;exitY=1;exitDx=0;exitDy=0;" edge="1" parent="1" source="NFMtk3u7j0-KxDk3szv8-177" target="NFMtk3u7j0-KxDk3szv8-185">
          <mxGeometry width="50" height="50" relative="1" as="geometry">
            <mxPoint x="2880" y="360" as="sourcePoint" />
            <mxPoint x="2930" y="310" as="targetPoint" />
          </mxGeometry>
        </mxCell>
        <mxCell id="NFMtk3u7j0-KxDk3szv8-188" value="" style="endArrow=classic;html=1;rounded=0;" edge="1" parent="1">
          <mxGeometry width="50" height="50" relative="1" as="geometry">
            <mxPoint x="2796.97" y="285" as="sourcePoint" />
            <mxPoint x="2797" y="440" as="targetPoint" />
          </mxGeometry>
        </mxCell>
        <mxCell id="NFMtk3u7j0-KxDk3szv8-189" value="admin" style="html=1;overflow=block;blockSpacing=1;whiteSpace=wrap;fontSize=25;fontStyle=1;spacing=0;strokeColor=#3a414a;strokeOpacity=100;rounded=1;absoluteArcSize=1;arcSize=9;strokeWidth=0.8;lucidId=-R9jAlnJOJ8s;" vertex="1" parent="1">
          <mxGeometry x="2730" y="440" width="135" height="105" as="geometry" />
        </mxCell>
        <mxCell id="NFMtk3u7j0-KxDk3szv8-191" value="&lt;span style=&quot;font-size: 17px;&quot;&gt;&lt;b&gt;Review for user&lt;/b&gt;&lt;/span&gt;" style="text;html=1;align=center;verticalAlign=middle;resizable=0;points=[];autosize=1;strokeColor=none;fillColor=none;rotation=0;" vertex="1" parent="1">
          <mxGeometry x="2980" y="252.5" width="150" height="30" as="geometry" />
        </mxCell>
        <mxCell id="PY1_fMZ_f6O2Spp5ilzY-2" value="&lt;span style=&quot;color: rgb(58, 65, 74); font-family: &amp;quot;TH Sarabun New&amp;quot;; font-size: 25px; font-style: normal; font-variant-ligatures: normal; font-variant-caps: normal; font-weight: 700; letter-spacing: normal; orphans: 2; text-align: center; text-indent: 0px; text-transform: none; widows: 2; word-spacing: 0px; -webkit-text-stroke-width: 0px; white-space: normal; background-color: rgb(251, 251, 251); text-decoration-thickness: initial; text-decoration-style: initial; text-decoration-color: initial; display: inline !important; float: none;&quot;&gt;Search keyword&lt;/span&gt;" style="text;whiteSpace=wrap;html=1;" vertex="1" parent="1">
          <mxGeometry x="585" y="253.5" width="125" height="33" as="geometry" />
        </mxCell>
        <mxCell id="PY1_fMZ_f6O2Spp5ilzY-3" value="&lt;span style=&quot;color: rgb(58, 65, 74); font-family: &amp;quot;TH Sarabun New&amp;quot;; font-size: 23px; font-style: normal; font-variant-ligatures: normal; font-variant-caps: normal; font-weight: 700; letter-spacing: normal; orphans: 2; text-align: center; text-indent: 0px; text-transform: none; widows: 2; word-spacing: 0px; -webkit-text-stroke-width: 0px; white-space: normal; background-color: rgb(251, 251, 251); text-decoration-thickness: initial; text-decoration-style: initial; text-decoration-color: initial; display: inline !important; float: none;&quot;&gt;Search Info&lt;/span&gt;" style="text;whiteSpace=wrap;html=1;" vertex="1" parent="1">
          <mxGeometry x="600" y="382" width="95" height="32" as="geometry" />
        </mxCell>
        <mxCell id="PY1_fMZ_f6O2Spp5ilzY-5" value="&lt;span style=&quot;color: rgb(58, 65, 74); font-family: &amp;quot;TH Sarabun New&amp;quot;; font-size: 23px; font-style: normal; font-variant-ligatures: normal; font-variant-caps: normal; font-weight: 700; letter-spacing: normal; orphans: 2; text-align: center; text-indent: 0px; text-transform: none; widows: 2; word-spacing: 0px; -webkit-text-stroke-width: 0px; white-space: normal; background-color: rgb(251, 251, 251); text-decoration-thickness: initial; text-decoration-style: initial; text-decoration-color: initial; display: inline !important; float: none;&quot;&gt;Search Info&lt;/span&gt;" style="text;whiteSpace=wrap;html=1;" vertex="1" parent="1">
          <mxGeometry x="1025" y="330" width="95" height="32" as="geometry" />
        </mxCell>
        <mxCell id="PY1_fMZ_f6O2Spp5ilzY-6" value="&lt;span style=&quot;color: rgb(58, 65, 74); font-family: &amp;quot;TH Sarabun New&amp;quot;; font-size: 25px; font-style: normal; font-variant-ligatures: normal; font-variant-caps: normal; font-weight: 700; letter-spacing: normal; orphans: 2; text-align: center; text-indent: 0px; text-transform: none; widows: 2; word-spacing: 0px; -webkit-text-stroke-width: 0px; white-space: normal; background-color: rgb(251, 251, 251); text-decoration-thickness: initial; text-decoration-style: initial; text-decoration-color: initial; display: inline !important; float: none;&quot;&gt;Search keyword&lt;/span&gt;" style="text;whiteSpace=wrap;html=1;" vertex="1" parent="1">
          <mxGeometry x="1040" y="267" width="125" height="33" as="geometry" />
        </mxCell>
        <mxCell id="msdiqpYYKV07Jo9mh3t5-1" value="&lt;span style=&quot;font-size: 17px;&quot;&gt;&lt;b&gt;Review for user&lt;/b&gt;&lt;/span&gt;" style="text;html=1;align=center;verticalAlign=middle;resizable=0;points=[];autosize=1;strokeColor=none;fillColor=none;rotation=0;" vertex="1" parent="1">
          <mxGeometry x="2790" y="345" width="150" height="30" as="geometry" />
        </mxCell>
      </root>
    </mxGraphModel>
  </diagram>
  <diagram id="JhyIuIBgnQKMgKFxNMm1" name="Context">
    <mxGraphModel grid="1" page="1" gridSize="10" guides="1" tooltips="1" connect="1" arrows="1" fold="1" pageScale="1" pageWidth="1169" pageHeight="827" math="0" shadow="0">
      <root>
        <mxCell id="0" />
        <mxCell id="1" parent="0" />
        <mxCell id="F4JRcx7N9LkY6PWGAcWH-2" value="user" style="html=1;dashed=0;whiteSpace=wrap;" vertex="1" parent="1">
          <mxGeometry x="230" y="240" width="100" height="80" as="geometry" />
        </mxCell>
        <mxCell id="mJv98P9S-SHEH8qu11g6-1" value="visitor" style="html=1;dashed=0;whiteSpace=wrap;" vertex="1" parent="1">
          <mxGeometry x="210" y="552" width="100" height="80" as="geometry" />
        </mxCell>
        <mxCell id="fBqAUjV2yAn9gnERwFbw-2" style="edgeStyle=orthogonalEdgeStyle;rounded=0;orthogonalLoop=1;jettySize=auto;html=1;exitX=0.75;exitY=1;exitDx=0;exitDy=0;entryX=0;entryY=0.5;entryDx=0;entryDy=0;" edge="1" parent="1" source="mJv98P9S-SHEH8qu11g6-2" target="mJv98P9S-SHEH8qu11g6-7">
          <mxGeometry relative="1" as="geometry">
            <mxPoint x="694.9411764705883" y="460" as="targetPoint" />
          </mxGeometry>
        </mxCell>
        <mxCell id="eRagU9qieAszpcvGEmVf-1" style="edgeStyle=orthogonalEdgeStyle;rounded=0;orthogonalLoop=1;jettySize=auto;html=1;exitX=0.75;exitY=0;exitDx=0;exitDy=0;entryX=0;entryY=0.5;entryDx=0;entryDy=0;" edge="1" parent="1" source="mJv98P9S-SHEH8qu11g6-2" target="mJv98P9S-SHEH8qu11g6-5">
          <mxGeometry relative="1" as="geometry">
            <mxPoint x="694.9411764705883" y="-80" as="targetPoint" />
          </mxGeometry>
        </mxCell>
        <mxCell id="eRagU9qieAszpcvGEmVf-6" style="edgeStyle=orthogonalEdgeStyle;rounded=0;orthogonalLoop=1;jettySize=auto;html=1;exitX=1;exitY=0;exitDx=0;exitDy=0;entryX=0;entryY=1;entryDx=0;entryDy=0;" edge="1" parent="1" target="mJv98P9S-SHEH8qu11g6-5">
          <mxGeometry relative="1" as="geometry">
            <mxPoint x="979.9999999999995" y="-40" as="targetPoint" />
            <mxPoint x="730" y="190" as="sourcePoint" />
            <Array as="points">
              <mxPoint x="730" />
            </Array>
          </mxGeometry>
        </mxCell>
        <mxCell id="7t7gO0oWgO5mtf7XwcJN-9" style="edgeStyle=orthogonalEdgeStyle;rounded=0;orthogonalLoop=1;jettySize=auto;html=1;exitX=1;exitY=1;exitDx=0;exitDy=0;entryX=0.25;entryY=1;entryDx=0;entryDy=0;" edge="1" parent="1" source="mJv98P9S-SHEH8qu11g6-2" target="mJv98P9S-SHEH8qu11g6-6">
          <mxGeometry relative="1" as="geometry">
            <mxPoint x="1030" y="330" as="targetPoint" />
          </mxGeometry>
        </mxCell>
        <mxCell id="mJv98P9S-SHEH8qu11g6-2" value="&lt;div style=&quot;display: flex; justify-content: center; text-align: center; align-items: baseline; font-size: 0; line-height: 1.25;margin-top: -2px;&quot;&gt;&lt;span&gt;&lt;span style=&quot;font-size:16.7px;font-weight: bold;&quot;&gt;0&lt;/span&gt;&lt;/span&gt;&lt;/div&gt;" style="shape=swimlane;html=1;rounded=1;arcSize=10;collapsible=0;fontStyle=0;startSize=39;whiteSpace=wrap;overflow=block;blockSpacing=1;fontSize=13;spacing=0;strokeColor=#3a414a;strokeOpacity=100;strokeWidth=0.8;" vertex="1" parent="1">
          <mxGeometry x="560" y="190" width="185" height="120" as="geometry" />
        </mxCell>
        <mxCell id="F4JRcx7N9LkY6PWGAcWH-4" value="&lt;b&gt;ระบบซื้อขายเครื่องเกมออนไลน์&lt;/b&gt;" style="text;html=1;align=center;verticalAlign=middle;resizable=0;points=[];autosize=1;strokeColor=none;fillColor=none;" vertex="1" parent="mJv98P9S-SHEH8qu11g6-2">
          <mxGeometry x="-5" y="64" width="190" height="30" as="geometry" />
        </mxCell>
        <mxCell id="mJv98P9S-SHEH8qu11g6-4" value="admin" style="html=1;dashed=0;whiteSpace=wrap;" vertex="1" parent="1">
          <mxGeometry x="230" y="-80" width="100" height="80" as="geometry" />
        </mxCell>
        <mxCell id="mJv98P9S-SHEH8qu11g6-5" value="admin" style="html=1;dashed=0;whiteSpace=wrap;" vertex="1" parent="1">
          <mxGeometry x="990" y="-80" width="100" height="80" as="geometry" />
        </mxCell>
        <mxCell id="mJv98P9S-SHEH8qu11g6-6" value="user" style="html=1;dashed=0;whiteSpace=wrap;" vertex="1" parent="1">
          <mxGeometry x="1000" y="220" width="100" height="80" as="geometry" />
        </mxCell>
        <mxCell id="mJv98P9S-SHEH8qu11g6-7" value="visitor" style="html=1;dashed=0;whiteSpace=wrap;" vertex="1" parent="1">
          <mxGeometry x="1000" y="552" width="100" height="80" as="geometry" />
        </mxCell>
        <mxCell id="ODe7QzxhNUhtaqMGSjAm-4" value="" style="endArrow=classic;html=1;rounded=0;exitX=1;exitY=0.5;exitDx=0;exitDy=0;" edge="1" parent="1" source="mJv98P9S-SHEH8qu11g6-1">
          <mxGeometry width="50" height="50" relative="1" as="geometry">
            <mxPoint x="340" y="460" as="sourcePoint" />
            <mxPoint x="620" y="310" as="targetPoint" />
            <Array as="points">
              <mxPoint x="620" y="592" />
              <mxPoint x="620" y="460" />
            </Array>
          </mxGeometry>
        </mxCell>
        <mxCell id="LCZpsp3xDNwet4l7ffQj-1" value="&lt;span style=&quot;color: rgb(58, 65, 74); font-family: Helvetica; font-style: normal; font-variant-ligatures: normal; font-variant-caps: normal; font-weight: 700; letter-spacing: normal; orphans: 2; text-indent: 0px; text-transform: none; widows: 2; word-spacing: 0px; -webkit-text-stroke-width: 0px; white-space: normal; background-color: rgb(251, 251, 251); text-decoration-thickness: initial; text-decoration-style: initial; text-decoration-color: initial; float: none; display: inline !important;&quot;&gt;&lt;font style=&quot;font-size: 15px;&quot;&gt;User information&lt;/font&gt;&lt;/span&gt;" style="text;whiteSpace=wrap;html=1;align=center;" vertex="1" parent="1">
          <mxGeometry x="350" y="280" width="130" height="30" as="geometry" />
        </mxCell>
        <mxCell id="LCZpsp3xDNwet4l7ffQj-2" style="edgeStyle=orthogonalEdgeStyle;rounded=0;orthogonalLoop=1;jettySize=auto;html=1;entryX=-0.022;entryY=0.865;entryDx=0;entryDy=0;entryPerimeter=0;" edge="1" parent="1">
          <mxGeometry relative="1" as="geometry">
            <mxPoint x="332" y="310" as="sourcePoint" />
            <mxPoint x="558" y="310" as="targetPoint" />
          </mxGeometry>
        </mxCell>
        <mxCell id="8ZhGxSqdF_rgS1EBPGBx-1" value="&lt;span style=&quot;font-size: 14px;&quot;&gt;&lt;b&gt;Search info&lt;/b&gt;&lt;/span&gt;" style="text;html=1;align=center;verticalAlign=middle;resizable=0;points=[];autosize=1;strokeColor=none;fillColor=none;" vertex="1" parent="1">
          <mxGeometry x="790" y="560" width="100" height="30" as="geometry" />
        </mxCell>
        <mxCell id="CDojTsom-iOrtMmmnrzV-2" value="&lt;span style=&quot;color: rgb(58, 65, 74); font-style: normal; font-variant-ligatures: normal; font-variant-caps: normal; font-weight: 700; letter-spacing: normal; orphans: 2; text-indent: 0px; text-transform: none; widows: 2; word-spacing: 0px; -webkit-text-stroke-width: 0px; white-space: normal; background-color: rgb(251, 251, 251); text-decoration-thickness: initial; text-decoration-style: initial; text-decoration-color: initial; float: none; display: inline !important;&quot;&gt;&lt;font style=&quot;font-size: 15px;&quot;&gt;Search keyword&lt;/font&gt;&lt;/span&gt;" style="text;whiteSpace=wrap;html=1;align=center;" vertex="1" parent="1">
          <mxGeometry x="350" y="212" width="125" height="33" as="geometry" />
        </mxCell>
        <mxCell id="CDojTsom-iOrtMmmnrzV-3" style="edgeStyle=orthogonalEdgeStyle;rounded=0;orthogonalLoop=1;jettySize=auto;html=1;entryX=-0.022;entryY=0.865;entryDx=0;entryDy=0;entryPerimeter=0;" edge="1" parent="1">
          <mxGeometry relative="1" as="geometry">
            <mxPoint x="334" y="245" as="sourcePoint" />
            <mxPoint x="560" y="245" as="targetPoint" />
          </mxGeometry>
        </mxCell>
        <mxCell id="Oi0QmtvdYl1TNVWhZ5Tm-1" value="&lt;span style=&quot;color: rgb(58, 65, 74); font-family: Helvetica; font-style: normal; font-variant-ligatures: normal; font-variant-caps: normal; font-weight: 700; letter-spacing: normal; orphans: 2; text-indent: 0px; text-transform: none; widows: 2; word-spacing: 0px; -webkit-text-stroke-width: 0px; white-space: normal; background-color: rgb(251, 251, 251); text-decoration-thickness: initial; text-decoration-style: initial; text-decoration-color: initial; float: none; display: inline !important;&quot;&gt;&lt;font style=&quot;font-size: 15px;&quot;&gt;Username and Password&lt;/font&gt;&lt;/span&gt;" style="text;whiteSpace=wrap;html=1;align=center;" vertex="1" parent="1">
          <mxGeometry x="350" y="245" width="190" height="30" as="geometry" />
        </mxCell>
        <mxCell id="QrwX0bJsocK8yhAYrr7H-1" value="&lt;font size=&quot;1&quot; style=&quot;&quot;&gt;&lt;b style=&quot;font-size: 15px;&quot;&gt;Search keyword&lt;/b&gt;&lt;/font&gt;" style="text;html=1;align=center;verticalAlign=middle;resizable=0;points=[];autosize=1;strokeColor=none;fillColor=none;" vertex="1" parent="1">
          <mxGeometry x="345" y="560" width="140" height="30" as="geometry" />
        </mxCell>
        <mxCell id="F4JRcx7N9LkY6PWGAcWH-5" style="edgeStyle=orthogonalEdgeStyle;rounded=0;orthogonalLoop=1;jettySize=auto;html=1;entryX=-0.022;entryY=0.865;entryDx=0;entryDy=0;entryPerimeter=0;" edge="1" parent="1" source="F4JRcx7N9LkY6PWGAcWH-2" target="F4JRcx7N9LkY6PWGAcWH-4">
          <mxGeometry relative="1" as="geometry" />
        </mxCell>
        <mxCell id="scqHzcmGuDyKzOX6rbxC-2" value="" style="endArrow=classic;html=1;rounded=0;exitX=1;exitY=0.5;exitDx=0;exitDy=0;" edge="1" parent="1" source="mJv98P9S-SHEH8qu11g6-4">
          <mxGeometry width="50" height="50" relative="1" as="geometry">
            <mxPoint x="330" y="80" as="sourcePoint" />
            <mxPoint x="620" y="180" as="targetPoint" />
            <Array as="points">
              <mxPoint x="620" y="-40" />
            </Array>
          </mxGeometry>
        </mxCell>
        <mxCell id="5pM6KT6VPyVG1Ye0H4qI-1" value="&lt;span style=&quot;color: rgba(0, 0, 0, 0); font-family: monospace; font-size: 0px; text-align: start;&quot;&gt;%3CmxGraphModel%3E%3Croot%3E%3CmxCell%20id%3D%220%22%2F%3E%3CmxCell%20id%3D%221%22%20parent%3D%220%22%2F%3E%3CmxCell%20id%3D%222%22%20value%3D%22Item%20Information%22%20style%3D%22html%3D1%3Boverflow%3Dblock%3BblockSpacing%3D1%3BwhiteSpace%3Dwrap%3BfontSize%3D16.7%3BfontStyle%3D1%3Bspacing%3D3.8%3BstrokeOpacity%3D0%3BfillOpacity%3D0%3Brounded%3D1%3BabsoluteArcSize%3D1%3BarcSize%3D9%3BfillColor%3D%23ffffff%3BstrokeWidth%3DNaN%3BlucidId%3Ds39jouGkJKpT%3B%22%20vertex%3D%221%22%20parent%3D%221%22%3E%3CmxGeometry%20x%3D%221350%22%20y%3D%2215%22%20width%3D%22180%22%20height%3D%2245%22%20as%3D%22geometry%22%2F%3E%3C%2FmxCell%3E%3C%2Froot%3E%3C%2FmxGraphModel%3E&lt;/span&gt;" style="text;html=1;align=center;verticalAlign=middle;resizable=0;points=[];autosize=1;strokeColor=none;fillColor=none;" vertex="1" parent="1">
          <mxGeometry x="402.5" y="-70" width="20" height="30" as="geometry" />
        </mxCell>
        <mxCell id="-MHJlFRLiuu2xG62Mooz-1" value="" style="endArrow=classic;html=1;rounded=0;entryX=0;entryY=0;entryDx=0;entryDy=0;" edge="1" parent="1" target="mJv98P9S-SHEH8qu11g6-2">
          <mxGeometry width="50" height="50" relative="1" as="geometry">
            <mxPoint x="320" y="240" as="sourcePoint" />
            <mxPoint x="560" y="160" as="targetPoint" />
            <Array as="points">
              <mxPoint x="320" y="160" />
              <mxPoint x="560" y="160" />
            </Array>
          </mxGeometry>
        </mxCell>
        <mxCell id="1yRqCXoPm1sXWtHKU_s6-1" value="&lt;b style=&quot;color: rgb(0, 0, 0); font-family: Helvetica; font-style: normal; font-variant-ligatures: normal; font-variant-caps: normal; letter-spacing: normal; orphans: 2; text-indent: 0px; text-transform: none; widows: 2; word-spacing: 0px; -webkit-text-stroke-width: 0px; white-space: nowrap; background-color: rgb(251, 251, 251); text-decoration-thickness: initial; text-decoration-style: initial; text-decoration-color: initial;&quot;&gt;&lt;font style=&quot;font-size: 15px;&quot;&gt;add to list&lt;/font&gt;&lt;/b&gt;" style="text;whiteSpace=wrap;html=1;align=center;" vertex="1" parent="1">
          <mxGeometry x="350" y="160" width="90" height="30" as="geometry" />
        </mxCell>
        <mxCell id="VGTg3XgxoZlvHzDLdRiy-2" value="" style="endArrow=classic;html=1;rounded=0;entryX=0.214;entryY=-0.022;entryDx=0;entryDy=0;entryPerimeter=0;" edge="1" parent="1" target="mJv98P9S-SHEH8qu11g6-2">
          <mxGeometry width="50" height="50" relative="1" as="geometry">
            <mxPoint x="280" as="sourcePoint" />
            <mxPoint x="580" y="180" as="targetPoint" />
            <Array as="points">
              <mxPoint x="600" />
            </Array>
          </mxGeometry>
        </mxCell>
        <mxCell id="VGTg3XgxoZlvHzDLdRiy-3" value="&lt;span style=&quot;font-size: 14px;&quot;&gt;&lt;b&gt;Username and Password&lt;/b&gt;&lt;/span&gt;" style="text;html=1;align=center;verticalAlign=middle;resizable=0;points=[];autosize=1;strokeColor=none;fillColor=none;" vertex="1" parent="1">
          <mxGeometry x="340" y="-30" width="190" height="30" as="geometry" />
        </mxCell>
        <mxCell id="Ab_3lCGE3rC6DuqYQB6E-2" value="" style="endArrow=classic;html=1;rounded=0;exitX=0.921;exitY=1.01;exitDx=0;exitDy=0;exitPerimeter=0;" edge="1" parent="1" source="F4JRcx7N9LkY6PWGAcWH-2">
          <mxGeometry width="50" height="50" relative="1" as="geometry">
            <mxPoint x="320" y="330" as="sourcePoint" />
            <mxPoint x="560" y="310" as="targetPoint" />
            <Array as="points">
              <mxPoint x="320" y="400" />
              <mxPoint x="560" y="400" />
            </Array>
          </mxGeometry>
        </mxCell>
        <mxCell id="9QB7YpxOWOJW5wUA2ahy-1" value="&lt;b style=&quot;color: rgb(0, 0, 0); font-family: Helvetica; font-style: normal; font-variant-ligatures: normal; font-variant-caps: normal; letter-spacing: normal; orphans: 2; text-indent: 0px; text-transform: none; widows: 2; word-spacing: 0px; -webkit-text-stroke-width: 0px; white-space: nowrap; background-color: rgb(251, 251, 251); text-decoration-thickness: initial; text-decoration-style: initial; text-decoration-color: initial;&quot;&gt;&lt;font style=&quot;font-size: 15px;&quot;&gt;Make order info&lt;/font&gt;&lt;/b&gt;" style="text;whiteSpace=wrap;html=1;align=center;" vertex="1" parent="1">
          <mxGeometry x="350" y="370" width="90" height="30" as="geometry" />
        </mxCell>
        <mxCell id="hTo1wc7glSh-V06oI6nQ-1" value="" style="endArrow=classic;html=1;rounded=0;exitX=0.5;exitY=1;exitDx=0;exitDy=0;" edge="1" parent="1" source="F4JRcx7N9LkY6PWGAcWH-2">
          <mxGeometry width="50" height="50" relative="1" as="geometry">
            <mxPoint x="300" y="320" as="sourcePoint" />
            <mxPoint x="590" y="310" as="targetPoint" />
            <Array as="points">
              <mxPoint x="280" y="440" />
              <mxPoint x="590" y="440" />
            </Array>
          </mxGeometry>
        </mxCell>
        <mxCell id="eM9T7zFUjM9GhQcGZoA2-1" value="&lt;font style=&quot;font-size: 15px;&quot;&gt;ข้อมูลจากการซื้อสินค้า&lt;/font&gt;" style="text;html=1;align=center;verticalAlign=middle;resizable=0;points=[];autosize=1;strokeColor=none;fillColor=none;" vertex="1" parent="1">
          <mxGeometry x="315" y="408" width="160" height="30" as="geometry" />
        </mxCell>
        <mxCell id="EBsOpZHVh9YOy2tDVek9-1" value="" style="endArrow=classic;html=1;rounded=0;entryX=0.056;entryY=0;entryDx=0;entryDy=0;entryPerimeter=0;" edge="1" parent="1" target="mJv98P9S-SHEH8qu11g6-2">
          <mxGeometry width="50" height="50" relative="1" as="geometry">
            <mxPoint x="280" y="240" as="sourcePoint" />
            <mxPoint x="570" y="120" as="targetPoint" />
            <Array as="points">
              <mxPoint x="280" y="120" />
              <mxPoint x="570" y="120" />
            </Array>
          </mxGeometry>
        </mxCell>
        <mxCell id="EBsOpZHVh9YOy2tDVek9-2" value="&lt;b style=&quot;color: rgb(0, 0, 0); font-family: Helvetica; font-style: normal; font-variant-ligatures: normal; font-variant-caps: normal; letter-spacing: normal; orphans: 2; text-indent: 0px; text-transform: none; widows: 2; word-spacing: 0px; -webkit-text-stroke-width: 0px; white-space: nowrap; background-color: rgb(251, 251, 251); text-decoration-thickness: initial; text-decoration-style: initial; text-decoration-color: initial;&quot;&gt;&lt;font style=&quot;font-size: 15px;&quot;&gt;pay for purchase&lt;/font&gt;&lt;/b&gt;" style="text;whiteSpace=wrap;html=1;align=center;" vertex="1" parent="1">
          <mxGeometry x="325" y="90" width="135" height="30" as="geometry" />
        </mxCell>
        <mxCell id="7t7gO0oWgO5mtf7XwcJN-2" value="" style="edgeStyle=orthogonalEdgeStyle;rounded=0;orthogonalLoop=1;jettySize=auto;html=1;exitX=0.5;exitY=0;exitDx=0;exitDy=0;entryX=0;entryY=0;entryDx=0;entryDy=0;" edge="1" parent="1" source="mJv98P9S-SHEH8qu11g6-2" target="mJv98P9S-SHEH8qu11g6-5">
          <mxGeometry relative="1" as="geometry">
            <mxPoint x="840" y="-110" as="targetPoint" />
            <mxPoint x="650" y="190" as="sourcePoint" />
            <Array as="points">
              <mxPoint x="650" y="-110" />
              <mxPoint x="990" y="-110" />
            </Array>
          </mxGeometry>
        </mxCell>
        <mxCell id="7t7gO0oWgO5mtf7XwcJN-5" value="&lt;span style=&quot;color: rgb(58, 65, 74); font-family: Helvetica; font-style: normal; font-variant-ligatures: normal; font-variant-caps: normal; font-weight: 700; letter-spacing: normal; orphans: 2; text-align: center; text-indent: 0px; text-transform: none; widows: 2; word-spacing: 0px; -webkit-text-stroke-width: 0px; white-space: normal; background-color: rgb(251, 251, 251); text-decoration-thickness: initial; text-decoration-style: initial; text-decoration-color: initial; float: none; display: inline !important;&quot;&gt;&lt;font style=&quot;font-size: 14px;&quot;&gt;Confirmation&lt;/font&gt;&lt;/span&gt;" style="text;whiteSpace=wrap;html=1;" vertex="1" parent="1">
          <mxGeometry x="795" y="-25" width="90" height="20" as="geometry" />
        </mxCell>
        <mxCell id="HY5sWaN7hKtIG-naSzOi-1" style="edgeStyle=orthogonalEdgeStyle;rounded=0;orthogonalLoop=1;jettySize=auto;html=1;entryX=-0.01;entryY=0.375;entryDx=0;entryDy=0;entryPerimeter=0;" edge="1" parent="1" target="mJv98P9S-SHEH8qu11g6-6">
          <mxGeometry relative="1" as="geometry">
            <mxPoint x="740" y="249.57999999999998" as="sourcePoint" />
            <mxPoint x="966" y="249.57999999999998" as="targetPoint" />
          </mxGeometry>
        </mxCell>
        <mxCell id="HY5sWaN7hKtIG-naSzOi-2" value="&lt;span style=&quot;color: rgb(58, 65, 74); font-style: normal; font-variant-ligatures: normal; font-variant-caps: normal; font-weight: 700; letter-spacing: normal; orphans: 2; text-indent: 0px; text-transform: none; widows: 2; word-spacing: 0px; -webkit-text-stroke-width: 0px; white-space: normal; background-color: rgb(251, 251, 251); text-decoration-thickness: initial; text-decoration-style: initial; text-decoration-color: initial; float: none; display: inline !important;&quot;&gt;&lt;font style=&quot;font-size: 15px;&quot;&gt;Search Info&lt;/font&gt;&lt;/span&gt;" style="text;whiteSpace=wrap;html=1;align=center;" vertex="1" parent="1">
          <mxGeometry x="760" y="220" width="125" height="33" as="geometry" />
        </mxCell>
        <mxCell id="2sqDjzY1DDCw7wBOnQNc-1" style="edgeStyle=orthogonalEdgeStyle;rounded=0;orthogonalLoop=1;jettySize=auto;html=1;entryX=-0.01;entryY=0.375;entryDx=0;entryDy=0;entryPerimeter=0;" edge="1" parent="1">
          <mxGeometry relative="1" as="geometry">
            <mxPoint x="741" y="290" as="sourcePoint" />
            <mxPoint x="1000" y="290.42" as="targetPoint" />
          </mxGeometry>
        </mxCell>
        <mxCell id="2sqDjzY1DDCw7wBOnQNc-2" value="&lt;span style=&quot;color: rgb(58, 65, 74); font-style: normal; font-variant-ligatures: normal; font-variant-caps: normal; font-weight: 700; letter-spacing: normal; orphans: 2; text-indent: 0px; text-transform: none; widows: 2; word-spacing: 0px; -webkit-text-stroke-width: 0px; white-space: normal; background-color: rgb(251, 251, 251); text-decoration-thickness: initial; text-decoration-style: initial; text-decoration-color: initial; float: none; display: inline !important;&quot;&gt;&lt;font style=&quot;font-size: 15px;&quot;&gt;Confirmation&lt;/font&gt;&lt;/span&gt;" style="text;whiteSpace=wrap;html=1;align=center;" vertex="1" parent="1">
          <mxGeometry x="760" y="263.5" width="125" height="33" as="geometry" />
        </mxCell>
        <mxCell id="7t7gO0oWgO5mtf7XwcJN-13" style="edgeStyle=orthogonalEdgeStyle;rounded=0;orthogonalLoop=1;jettySize=auto;html=1;exitX=1;exitY=0;exitDx=0;exitDy=0;entryX=0.1;entryY=-0.034;entryDx=0;entryDy=0;entryPerimeter=0;" edge="1" parent="1" source="mJv98P9S-SHEH8qu11g6-2" target="mJv98P9S-SHEH8qu11g6-6">
          <mxGeometry relative="1" as="geometry">
            <Array as="points">
              <mxPoint x="740" y="170" />
              <mxPoint x="1010" y="170" />
            </Array>
          </mxGeometry>
        </mxCell>
        <mxCell id="Bc9CneGOdk4FBHaKNI_7-2" value="&lt;font style=&quot;font-size: 14px;&quot;&gt;&lt;b&gt;Order info&lt;/b&gt;&lt;/font&gt;" style="text;html=1;align=center;verticalAlign=middle;resizable=0;points=[];autosize=1;strokeColor=none;fillColor=none;" vertex="1" parent="1">
          <mxGeometry x="770" y="300" width="90" height="30" as="geometry" />
        </mxCell>
        <mxCell id="uH7g9AIAaH9pJW4Jb7Kb-1" value="&lt;b style=&quot;color: rgb(0, 0, 0); font-family: Helvetica; font-style: normal; font-variant-ligatures: normal; font-variant-caps: normal; letter-spacing: normal; orphans: 2; text-align: center; text-indent: 0px; text-transform: none; widows: 2; word-spacing: 0px; -webkit-text-stroke-width: 0px; white-space: nowrap; background-color: rgb(251, 251, 251); text-decoration-thickness: initial; text-decoration-style: initial; text-decoration-color: initial;&quot;&gt;&lt;font style=&quot;font-size: 14px;&quot;&gt;Confirm to cart&lt;/font&gt;&lt;/b&gt;" style="text;whiteSpace=wrap;html=1;" vertex="1" parent="1">
          <mxGeometry x="755" y="140" width="135" height="30" as="geometry" />
        </mxCell>
        <mxCell id="Oq-QNpEz3ggPaNoVW9HS-1" value="&lt;b style=&quot;color: rgb(0, 0, 0); font-family: Helvetica; font-size: 12px; font-style: normal; font-variant-ligatures: normal; font-variant-caps: normal; letter-spacing: normal; orphans: 2; text-align: center; text-indent: 0px; text-transform: none; widows: 2; word-spacing: 0px; -webkit-text-stroke-width: 0px; white-space: nowrap; background-color: rgb(251, 251, 251); text-decoration-thickness: initial; text-decoration-style: initial; text-decoration-color: initial;&quot;&gt;&lt;font style=&quot;font-size: 15px;&quot;&gt;Comfirm to Purchase&lt;/font&gt;&lt;/b&gt;" style="text;whiteSpace=wrap;html=1;" vertex="1" parent="1">
          <mxGeometry x="755" y="370" width="155" height="20" as="geometry" />
        </mxCell>
        <mxCell id="mz7bVfaeb-lafMqJ2YPZ-1" value="" style="endArrow=classic;html=1;rounded=0;entryX=0.75;entryY=1;entryDx=0;entryDy=0;" edge="1" parent="1" target="mJv98P9S-SHEH8qu11g6-6">
          <mxGeometry width="50" height="50" relative="1" as="geometry">
            <mxPoint x="710" y="310" as="sourcePoint" />
            <mxPoint x="1070" y="400" as="targetPoint" />
            <Array as="points">
              <mxPoint x="710" y="360" />
              <mxPoint x="710" y="400" />
              <mxPoint x="1075" y="400" />
            </Array>
          </mxGeometry>
        </mxCell>
        <mxCell id="RQ_IBuPobYnv0GJKDOkk-3" value="&lt;b style=&quot;&quot;&gt;&lt;font style=&quot;font-size: 14px;&quot;&gt;Review for user&lt;/font&gt;&lt;/b&gt;" style="text;html=1;align=center;verticalAlign=middle;resizable=0;points=[];autosize=1;strokeColor=none;fillColor=none;rotation=0;" vertex="1" parent="1">
          <mxGeometry x="775" y="-70" width="130" height="30" as="geometry" />
        </mxCell>
        <mxCell id="VOXlBQaeR_HtpYcNQA18-1" value="Item Information" style="html=1;overflow=block;blockSpacing=1;whiteSpace=wrap;fontSize=16.7;fontStyle=1;spacing=3.8;strokeOpacity=0;fillOpacity=0;rounded=1;absoluteArcSize=1;arcSize=9;fillColor=#ffffff;strokeWidth=NaN;lucidId=s39jouGkJKpT;" vertex="1" parent="1">
          <mxGeometry x="340" y="-80" width="180" height="45" as="geometry" />
        </mxCell>
        <mxCell id="f72c_fnplZIigFimRCou-1" value="&lt;span style=&quot;color: rgb(0, 0, 0); font-family: Helvetica; font-size: 17px; font-style: normal; font-variant-ligatures: normal; font-variant-caps: normal; font-weight: 700; letter-spacing: normal; orphans: 2; text-align: center; text-indent: 0px; text-transform: none; widows: 2; word-spacing: 0px; -webkit-text-stroke-width: 0px; white-space: normal; background-color: rgb(251, 251, 251); text-decoration-thickness: initial; text-decoration-style: initial; text-decoration-color: initial; display: inline !important; float: none;&quot;&gt;comfirm add items&lt;/span&gt;" style="text;whiteSpace=wrap;html=1;" vertex="1" parent="1">
          <mxGeometry x="761.25" y="-150" width="157.5" height="30" as="geometry" />
        </mxCell>
      </root>
    </mxGraphModel>
  </diagram>
</mxfile>
